<?xml version="1.0" encoding="UTF-8" standalone="no"?>
<!DOCTYPE svg PUBLIC "-//W3C//DTD SVG 1.1//EN" "http://www.w3.org/Graphics/SVG/1.1/DTD/svg11.dtd">
<svg width="100%" height="100%" viewBox="0 0 16 16" version="1.1" xmlns="http://www.w3.org/2000/svg" xmlns:xlink="http://www.w3.org/1999/xlink" xml:space="preserve" xmlns:serif="http://www.serif.com/" style="fill-rule:evenodd;clip-rule:evenodd;stroke-linejoin:round;stroke-miterlimit:2;">
    <g transform="matrix(0.0479042,0,0,0.0479042,-4.26347,-4.26347)">
        <path d="M422.568,170.927C422.568,125.958 385.25,89.45 339.284,89.45L172.716,89.45C126.75,89.45 89.432,125.958 89.432,170.927L89.432,341.073C89.432,386.042 126.75,422.55 172.716,422.55L339.284,422.55C385.25,422.55 422.568,386.042 422.568,341.073L422.568,170.927ZM269.606,217.564L335.192,217.564L355.147,181.99C337.278,154.805 299.576,136.049 256,136.049C212.424,136.049 174.722,154.805 156.853,181.99L176.808,217.564L242.394,217.564L293.952,176.806L269.606,217.564Z" fill="black" />
    </g>
</svg>
